HIERARCHY
ROOT Hips
{
	OFFSET 0.000000 89.005402 0.000000
	CHANNELS 6 Xposition Yposition Zposition Xrotation Yrotation Zrotation
	JOINT Spine
	{
		OFFSET 0.116900 10.681000 0.373400
		CHANNELS 3 Xrotation Yrotation Zrotation
		JOINT Spine1
		{
			OFFSET 0.000000 13.840401 0.053500
			CHANNELS 3 Xrotation Yrotation Zrotation
			JOINT Spine2
			{
				OFFSET 0.000000 14.712700 -0.366200
				CHANNELS 3 Xrotation Yrotation Zrotation
				JOINT Neck
				{
					OFFSET 0.000000 35.415497 -3.314200
					CHANNELS 3 Xrotation Yrotation Zrotation
					JOINT Head
					{
						OFFSET 0.000000 16.899200 1.218300
						CHANNELS 3 Xrotation Yrotation Zrotation
						JOINT HeadTop_End
						{
							OFFSET 0.000000 22.206207 2.192500
							CHANNELS 3 Xrotation Yrotation Zrotation
							End Site
							{
								OFFSET 0.000000 22.314178 0.000000
							}
						}
					}
				}
				JOINT LeftShoulder
				{
					OFFSET 12.896400 26.716293 -4.548400
					CHANNELS 3 Xrotation Yrotation Zrotation
					JOINT LeftArm
					{
						OFFSET 19.027000 -4.857010 -1.718400
						CHANNELS 3 Xrotation Yrotation Zrotation
						JOINT LeftForeArm
						{
							OFFSET 24.179897 0.000000 0.000000
							CHANNELS 3 Xrotation Yrotation Zrotation
							JOINT LeftHand
							{
								OFFSET 27.156403 0.000000 0.000000
								CHANNELS 3 Xrotation Yrotation Zrotation
								JOINT LeftHandIndex1
								{
									OFFSET 16.441200 0.000000 0.000000
									CHANNELS 3 Xrotation Yrotation Zrotation
									JOINT LeftHandIndex2
									{
										OFFSET 4.821899 0.000000 0.000000
										CHANNELS 3 Xrotation Yrotation Zrotation
										JOINT LeftHandIndex3
										{
											OFFSET 6.386497 0.000000 0.000000
											CHANNELS 3 Xrotation Yrotation Zrotation
											JOINT LeftHandIndex4
											{
												OFFSET 5.188988 0.000000 0.000000
												CHANNELS 3 Xrotation Yrotation Zrotation
												End Site
												{
													OFFSET -0.178703 5.185913 0.000177
												}
											}
										}
									}
								}
								JOINT LeftHandThumb1
								{
									OFFSET 6.534897 -5.032593 5.900300
									CHANNELS 3 Xrotation Yrotation Zrotation
									JOINT LeftHandThumb2
									{
										OFFSET 3.818176 -2.204422 2.204423
										CHANNELS 3 Xrotation Yrotation Zrotation
										JOINT LeftHandThumb3
										{
											OFFSET 3.252098 -1.877594 1.877601
											CHANNELS 3 Xrotation Yrotation Zrotation
											JOINT LeftHandThumb4
											{
												OFFSET 5.251778 -3.032120 3.032117
												CHANNELS 3 Xrotation Yrotation Zrotation
												End Site
												{
													OFFSET 0.000023 6.780014 0.000000
												}
											}
										}
									}
								}
							}
						}
					}
				}
				JOINT RightShoulder
				{
					OFFSET -12.896300 26.716293 -4.548400
					CHANNELS 3 Xrotation Yrotation Zrotation
					JOINT RightArm
					{
						OFFSET -19.027000 -4.857010 -1.718400
						CHANNELS 3 Xrotation Yrotation Zrotation
						JOINT RightForeArm
						{
							OFFSET -24.179897 0.000000 0.000000
							CHANNELS 3 Xrotation Yrotation Zrotation
							JOINT RightHand
							{
								OFFSET -27.156403 0.000000 0.000000
								CHANNELS 3 Xrotation Yrotation Zrotation
								JOINT RightHandThumb1
								{
									OFFSET -6.591202 -4.852203 5.988100
									CHANNELS 3 Xrotation Yrotation Zrotation
									JOINT RightHandThumb2
									{
										OFFSET -3.818176 -2.204422 2.204423
										CHANNELS 3 Xrotation Yrotation Zrotation
										JOINT RightHandThumb3
										{
											OFFSET -3.252098 -1.877594 1.877601
											CHANNELS 3 Xrotation Yrotation Zrotation
											JOINT RightHandThumb4
											{
												OFFSET -5.251778 -3.032120 3.032117
												CHANNELS 3 Xrotation Yrotation Zrotation
												End Site
												{
													OFFSET -0.000023 6.780014 0.000000
												}
											}
										}
									}
								}
								JOINT RightHandIndex1
								{
									OFFSET -16.029404 0.000000 0.000000
									CHANNELS 3 Xrotation Yrotation Zrotation
									JOINT RightHandIndex2
									{
										OFFSET -5.213303 0.000000 0.000000
										CHANNELS 3 Xrotation Yrotation Zrotation
										JOINT RightHandIndex3
										{
											OFFSET -6.386528 0.000000 0.000000
											CHANNELS 3 Xrotation Yrotation Zrotation
											JOINT RightHandIndex4
											{
												OFFSET -5.189026 0.000000 0.000000
												CHANNELS 3 Xrotation Yrotation Zrotation
												End Site
												{
													OFFSET 0.236702 5.183624 0.001972
												}
											}
										}
									}
								}
							}
						}
					}
				}
			}
		}
	}
	JOINT LeftUpLeg
	{
		OFFSET 14.073000 -7.904099 -1.463000
		CHANNELS 3 Xrotation Yrotation Zrotation
		JOINT LeftLeg
		{
			OFFSET -0.109806 -34.073280 4.093200
			CHANNELS 3 Xrotation Yrotation Zrotation
			JOINT LeftFoot
			{
				OFFSET 0.109806 -29.899420 -6.319000
				CHANNELS 3 Xrotation Yrotation Zrotation
				JOINT LeftToeBase
				{
					OFFSET 1.551100 -14.988700 20.535801
					CHANNELS 3 Xrotation Yrotation Zrotation
					JOINT LeftToe_End
					{
						OFFSET 0.221200 0.570800 13.248301
						CHANNELS 3 Xrotation Yrotation Zrotation
						End Site
						{
							OFFSET 0.000000 13.262435 0.000000
						}
					}
				}
			}
		}
	}
	JOINT RightUpLeg
	{
		OFFSET -13.839300 -7.904099 -1.463000
		CHANNELS 3 Xrotation Yrotation Zrotation
		JOINT RightLeg
		{
			OFFSET 0.109694 -34.073219 4.093300
			CHANNELS 3 Xrotation Yrotation Zrotation
			JOINT RightFoot
			{
				OFFSET -0.109694 -29.899384 -6.319200
				CHANNELS 3 Xrotation Yrotation Zrotation
				JOINT RightToeBase
				{
					OFFSET -1.551100 -14.988700 20.535801
					CHANNELS 3 Xrotation Yrotation Zrotation
					JOINT RightToe_End
					{
						OFFSET -0.221200 0.570900 13.248299
						CHANNELS 3 Xrotation Yrotation Zrotation
						End Site
						{
							OFFSET 0.000000 13.262440 0.000000
						}
					}
				}
			}
		}
	}
}
MOTION
Frames: 4
Frame Time: 0.033333
-4.473825 96.284363 187.332870 8.189667 33.586919 -12.051728 11.057941 0.820151 2.122695 6.084118 2.388068 5.311505 -5.714679 1.245808 5.687909 22.191623 -12.439386 4.807785 -24.181656 -13.129699 1.111213 0.000001 -0.000000 0.000000 1.672458 -7.486459 15.974525 -25.611603 -5.032921 -6.841670 38.491627 -65.753944 15.426483 13.209936 -2.025116 32.204601 3.908513 -4.790957 -0.454135 -0.264962 -1.279987 -23.425935 -0.365332 -0.123755 -2.292316 -0.000002 -0.000002 0.000003 5.977622 -5.493240 16.669451 8.754983 23.402643 -9.802177 7.890735 4.936874 1.044447 -0.000000 0.000002 0.000005 2.370319 6.586538 -16.799072 -21.811127 -10.367720 13.456437 -173.193271 149.865880 181.697403 1.646620 22.281636 -27.963988 0.543649 4.357730 -19.331310 4.304072 -19.515567 6.645559 5.570492 2.136268 -5.049597 0.000001 0.000002 0.000003 4.177152 4.850087 -9.877067 -0.105888 1.118972 11.056797 -0.388609 -0.141201 -10.429787 -0.000000 0.000000 0.000003 -22.374004 7.919348 4.915171 18.299841 -3.078016 -1.195891 23.802564 0.962462 0.430363 -24.832505 1.311210 5.243914 0.000000 -0.000001 0.000000 -53.824548 -4.166483 -26.840127 51.071404 10.357760 6.917516 -5.804625 -0.425747 9.252600 4.302524 -6.436614 9.911138 -0.000000 -0.000001 0.000000 
-4.207987 87.751007 193.463837 8.130169 32.484933 -11.823527 11.030500 1.095311 2.415606 6.032969 2.613153 5.386577 -5.765457 1.448185 5.808334 21.875195 -12.263104 5.851102 -24.853696 -11.946634 -0.413627 -0.000001 0.000000 0.000000 1.411069 -8.280265 15.758981 -24.241385 -1.608085 -9.427609 40.027787 -70.107999 18.032992 13.502119 -3.038698 33.751103 4.181826 -5.128221 -6.384469 -0.419279 -1.502631 -31.233912 -0.391351 -0.283350 -8.118721 0.000002 0.000003 0.000002 7.367848 -5.649896 15.383726 10.936233 25.218747 -11.083107 9.656881 7.830200 -0.159513 0.000003 -0.000002 0.000002 1.754832 6.063880 -13.935866 -20.791506 -10.136461 13.929498 -173.981529 146.047462 180.712066 4.889181 22.835802 -28.944450 0.386426 3.861821 -18.764579 5.129525 -20.261100 6.950732 6.357371 1.145713 -4.896540 0.000000 0.000001 0.000002 4.654935 5.148574 -6.810607 -0.103648 1.316799 15.451606 -0.347234 -0.063359 -8.111398 0.000000 -0.000000 0.000002 -20.819048 8.324190 7.050604 35.011341 0.851789 -1.539661 -11.102735 -0.695587 3.686249 -16.135287 2.761616 1.328336 -0.000000 -0.000002 -0.000000 -56.625321 -3.999578 -28.135948 47.409822 7.049971 8.936394 -11.944560 -0.607703 9.655058 3.351083 -5.967966 9.503065 0.000001 -0.000001 0.000000 
-4.230549 78.834763 199.489609 7.417657 30.678201 -10.675568 11.583670 1.099227 2.822136 7.169797 2.280493 5.325483 -4.629064 1.129132 5.682715 19.511771 -11.317269 5.559450 -23.840050 -10.358313 -0.887159 0.000002 0.000001 0.000000 0.973281 -9.255564 13.266918 -21.779520 2.813875 -14.700208 37.595123 -74.376997 16.913628 13.413667 -4.818305 32.220437 4.456133 -5.611579 -12.954777 -0.607480 -1.718065 -39.836197 -0.418259 -0.463674 -14.674296 0.000003 -0.000001 -0.000000 8.973848 -6.005853 13.943711 13.438796 27.226176 -12.682808 11.585829 11.195023 -1.655074 -0.000001 -0.000001 0.000003 1.350313 6.161940 -9.977737 -18.856131 -10.390593 14.910226 -175.144820 141.185720 180.381403 7.167525 22.602783 -30.949961 0.797565 3.439686 -17.861764 6.461975 -21.460325 7.678726 7.254312 -0.770681 -4.200088 -0.000000 -0.000002 -0.000002 5.180333 5.571233 -2.469242 -0.103628 1.539930 21.410131 -0.269403 0.050887 -4.271209 -0.000000 -0.000000 0.000000 -14.573899 10.117340 9.844935 46.238332 -1.679478 -1.538517 -39.498649 -0.125537 0.634292 -0.000006 2.643444 -0.000000 -0.000000 0.000000 0.000000 -60.780440 -2.655552 -28.227683 46.824154 -0.488149 10.013949 -20.143341 -0.092708 8.902762 4.436841 -4.873528 8.383243 -0.000002 0.000001 0.000000 
-4.202451 70.808968 206.215118 6.447600 27.881333 -9.287088 11.942935 0.681641 2.983998 7.921500 1.621880 4.927406 -3.884536 0.558353 5.161326 15.416003 -10.248526 4.711383 -22.013700 -8.821617 -1.361589 -0.000000 -0.000000 -0.000000 0.244205 -10.575198 9.141524 -18.274233 7.668795 -21.576817 32.201470 -79.044680 13.064671 12.813013 -6.895093 27.952366 4.699784 -6.259454 -19.946601 -0.826755 -1.915859 -48.962559 -0.451134 -0.662628 -21.703959 0.000000 0.000001 -0.000000 10.679826 -6.567703 12.402016 16.195429 29.335622 -14.568356 13.661573 14.899071 -3.384340 -0.000001 -0.000001 -0.000001 1.256073 6.365887 -5.425485 -15.972081 -10.513274 16.151077 -176.093055 136.334319 180.190991 9.522372 22.586985 -33.154312 1.840609 3.185095 -16.588931 8.365978 -23.142445 8.894219 8.340832 -3.690522 -2.938117 -0.000001 -0.000002 0.000001 5.706731 6.163936 3.222723 -0.130064 1.790322 29.014855 -0.168242 0.215650 1.197581 0.000000 -0.000000 -0.000000 -10.575212 10.498999 12.005367 61.400457 -2.131584 -0.437041 -57.648128 3.897935 -1.178858 0.777015 2.654433 -3.132885 0.000000 0.000001 -0.000000 -67.433631 -0.371571 -25.076025 47.666647 -1.726717 7.365679 -17.880349 -0.369462 12.308675 -3.817927 -12.421556 17.199717 0.000002 -0.000000 -0.000001 
